<svg width="16" height="16" viewBox="0 0 16 16" fill="none" xmlns="http://www.w3.org/2000/svg">
<path d="M13 8C13 7.86739 13.0527 7.74021 13.1464 7.64645C13.2402 7.55268 13.3674 7.5 13.5 7.5C13.6326 7.5 13.7598 7.55268 13.8536 7.64645C13.9473 7.74021 14 7.86739 14 8V13.5C14 13.6326 13.9473 13.7598 13.8536 13.8536C13.7598 13.9473 13.6326 14 13.5 14H2.5C2.36739 14 2.24021 13.9473 2.14645 13.8536C2.05268 13.7598 2 13.6326 2 13.5V2.5C2 2.36739 2.05268 2.24021 2.14645 2.14645C2.24021 2.05268 2.36739 2 2.5 2H8C8.13261 2 8.25979 2.05268 8.35355 2.14645C8.44732 2.24021 8.5 2.36739 8.5 2.5C8.5 2.63261 8.44732 2.75979 8.35355 2.85355C8.25979 2.94732 8.13261 3 8 3H3V13H13V8Z" fill="#2B2E33"/>
<path d="M7.34298 8.65927L8.16798 8.54127L13.236 3.47427C13.2837 3.42815 13.3218 3.37298 13.348 3.31198C13.3742 3.25097 13.388 3.18536 13.3886 3.11897C13.3892 3.05258 13.3765 2.98674 13.3514 2.9253C13.3262 2.86385 13.2891 2.80802 13.2422 2.76108C13.1952 2.71413 13.1394 2.677 13.078 2.65186C13.0165 2.62672 12.9507 2.61407 12.8843 2.61465C12.8179 2.61522 12.7523 2.62902 12.6913 2.65522C12.6303 2.68143 12.5751 2.71952 12.529 2.76727L7.45998 7.83427L7.34198 8.65927H7.34298ZM13.943 2.05927C14.0824 2.19857 14.1929 2.36398 14.2684 2.54603C14.3438 2.72808 14.3827 2.92321 14.3827 3.12027C14.3827 3.31734 14.3438 3.51247 14.2684 3.69452C14.1929 3.87657 14.0824 4.04197 13.943 4.18127L8.75798 9.36627C8.68152 9.44301 8.58221 9.49285 8.47498 9.50827L6.82498 9.74427C6.74809 9.75531 6.66968 9.74829 6.59597 9.72375C6.52226 9.69921 6.45528 9.65783 6.40035 9.6029C6.34542 9.54797 6.30405 9.481 6.27951 9.40729C6.25497 9.33358 6.24794 9.25517 6.25898 9.17827L6.49498 7.52827C6.51013 7.42117 6.55961 7.32187 6.63598 7.24527L11.822 2.06027C12.1033 1.77907 12.4847 1.62109 12.8825 1.62109C13.2802 1.62109 13.6617 1.77907 13.943 2.06027V2.05927Z" fill="#2B2E33"/>
</svg>
