<svg width="16" height="16" viewBox="0 0 16 16" fill="none" xmlns="http://www.w3.org/2000/svg">
<path d="M12.4 14.2222C12.1941 15.2366 11.2973 16 10.2222 16H2.22222C0.994923 16 0 15.0051 0 13.7778V7.55556C0 6.48046 0.763449 5.58368 1.77778 5.37779V4.44444C1.77778 1.98985 3.76762 0 6.22222 0C8.67682 0 10.6667 1.98985 10.6667 4.44444V5.37779C11.681 5.58368 12.4444 6.48046 12.4444 7.55556V8.88889H13.7778C15.0051 8.88889 16 9.88381 16 11.1111V12C16 13.2273 15.0051 14.2222 13.7778 14.2222H12.4ZM11.4797 14.2222H7.55556C6.32826 14.2222 5.33333 13.2273 5.33333 12V11.1111C5.33333 9.88381 6.32826 8.88889 7.55556 8.88889H11.5556V7.55556C11.5556 6.85377 11.0134 6.27861 10.325 6.22613C10.292 6.23394 10.2576 6.23808 10.2222 6.23808C10.1813 6.23808 10.1418 6.23256 10.1042 6.22222H2.22222C1.48584 6.22222 0.888889 6.81918 0.888889 7.55556V13.7778C0.888889 14.5142 1.48584 15.1111 2.22222 15.1111H10.2222C10.8028 15.1111 11.2966 14.7401 11.4797 14.2222ZM2.66667 5.33333H9.77778V4.44444C9.77778 2.48077 8.1859 0.888889 6.22222 0.888889C4.25854 0.888889 2.66667 2.48077 2.66667 4.44444V5.33333ZM15.1111 12V11.1111C15.1111 10.3747 14.5142 9.77778 13.7778 9.77778H7.55556C6.81918 9.77778 6.22222 10.3747 6.22222 11.1111V12C6.22222 12.7364 6.81918 13.3333 7.55556 13.3333H13.7778C14.5142 13.3333 15.1111 12.7364 15.1111 12ZM7.55556 10.6667H8.44444C8.6899 10.6667 8.88889 10.8657 8.88889 11.1111V12C8.88889 12.2455 8.6899 12.4444 8.44444 12.4444H7.55556C7.3101 12.4444 7.11111 12.2455 7.11111 12V11.1111C7.11111 10.8657 7.3101 10.6667 7.55556 10.6667ZM10.2222 10.6667H11.1111C11.3566 10.6667 11.5556 10.8657 11.5556 11.1111V12C11.5556 12.2455 11.3566 12.4444 11.1111 12.4444H10.2222C9.97676 12.4444 9.77778 12.2455 9.77778 12V11.1111C9.77778 10.8657 9.97676 10.6667 10.2222 10.6667ZM12.8889 10.6667H13.7778C14.0232 10.6667 14.2222 10.8657 14.2222 11.1111V12C14.2222 12.2455 14.0232 12.4444 13.7778 12.4444H12.8889C12.6434 12.4444 12.4444 12.2455 12.4444 12V11.1111C12.4444 10.8657 12.6434 10.6667 12.8889 10.6667Z" fill="#131515"/>
</svg>
