<svg width="13" height="8" viewBox="0 0 13 8" fill="none" xmlns="http://www.w3.org/2000/svg">
<path d="M11.5367 7.86523L12.8625 7.86523C12.9774 7.86523 13.0409 7.752 12.9706 7.67553L6.93137 1.04614C6.88028 0.989811 6.81486 0.944234 6.7401 0.912883C6.66534 0.881532 6.58322 0.865234 6.5 0.865234C6.41678 0.865234 6.33465 0.881532 6.2599 0.912883C6.18514 0.944234 6.11972 0.989811 6.06863 1.04614L0.0294349 7.67553C-0.0408881 7.75347 0.0225732 7.86523 0.137491 7.86523L1.46334 7.86523C1.54738 7.86523 1.62799 7.83141 1.67945 7.77553L6.49914 2.48143L11.3205 7.77553C11.372 7.83141 11.4526 7.86523 11.5367 7.86523Z" fill="#182B3C"/>
</svg>
