<svg width="8" height="14" viewBox="0 0 8 14" fill="none" xmlns="http://www.w3.org/2000/svg">
<path d="M0.865235 12.4683L0.865235 13.7941C0.865235 13.9091 0.978471 13.9725 1.05494 13.9022L7.68433 7.86301C7.74066 7.81192 7.78623 7.7465 7.81759 7.67174C7.84894 7.59699 7.86523 7.51486 7.86523 7.43164C7.86523 7.34842 7.84894 7.26629 7.81759 7.19154C7.78623 7.11678 7.74066 7.05136 7.68433 7.00027L1.05494 0.961076C0.976999 0.890753 0.865234 0.954215 0.865234 1.06913L0.865234 2.39498C0.865234 2.47902 0.899057 2.55964 0.95494 2.61109L6.24904 7.43078L0.954941 12.2522C0.899058 12.3036 0.865235 12.3843 0.865235 12.4683Z" fill="#00A6EF"/>
</svg>
