<svg width="34" height="34" viewBox="0 0 34 34" fill="none" xmlns="http://www.w3.org/2000/svg">
<path d="M16.5361 0C7.41881 0 0 7.41675 0 16.5351C0 25.6534 7.41881 33.0701 16.5361 33.0701C25.6534 33.0701 33.0722 25.6534 33.0722 16.5351C33.0722 7.41675 25.6534 0 16.5361 0ZM16.5361 31.9688C8.02622 31.9688 1.10344 25.0449 1.10344 16.5351C1.10344 8.02519 8.02622 1.10138 16.5361 1.10138C25.046 1.10138 31.9688 8.02519 31.9688 16.5351C31.9688 25.0449 25.046 31.9688 16.5361 31.9688Z" fill="#182B3C"/>
<path d="M20.1454 7.25407H17.394C13.8898 7.21901 13.4423 9.38773 13.4423 11.7349V13.4416H11.8954C11.8255 13.4322 11.7544 13.4391 11.6875 13.4617C11.6207 13.4844 11.56 13.5221 11.5101 13.5719C11.4603 13.6218 11.4226 13.6825 11.3999 13.7493C11.3773 13.8162 11.3704 13.8873 11.3798 13.9572V17.0509C11.3704 17.1209 11.3773 17.192 11.3999 17.2588C11.4226 17.3256 11.4603 17.3863 11.5101 17.4362C11.56 17.4861 11.6207 17.5238 11.6875 17.5464C11.7544 17.569 11.8255 17.5759 11.8954 17.5666H13.4423V25.3009C13.4337 25.371 13.4412 25.4421 13.4643 25.5088C13.4874 25.5754 13.5254 25.636 13.5754 25.6857C13.6255 25.7355 13.6862 25.7731 13.7531 25.7958C13.8199 25.8185 13.891 25.8256 13.961 25.8166H17.1115C17.4157 25.8516 17.6621 25.6052 17.5652 25.3009L17.5673 17.5666H20.1454C20.2153 17.5759 20.2864 17.569 20.3533 17.5464C20.4201 17.5238 20.4808 17.4861 20.5307 17.4362C20.5805 17.3863 20.6182 17.3256 20.6408 17.2588C20.6635 17.192 20.6704 17.1209 20.661 17.0509V13.9572C20.6704 13.8873 20.6635 13.8162 20.6408 13.7493C20.6182 13.6825 20.5805 13.6218 20.5307 13.5719C20.4808 13.5221 20.4201 13.4844 20.3533 13.4617C20.2864 13.4391 20.2153 13.4322 20.1454 13.4416H17.5642L17.5673 11.8947C17.6673 11.2357 17.6673 11.343 18.2788 11.3791H20.1237C20.2671 11.3471 20.4197 11.3646 20.527 11.2605C20.6342 11.1563 20.6961 11.014 20.66 10.8634V7.76969C20.6695 7.69984 20.6628 7.62872 20.6403 7.5619C20.6178 7.49507 20.5802 7.43434 20.5304 7.38443C20.4806 7.33453 20.4199 7.2968 20.3532 7.27419C20.2864 7.25157 20.2153 7.24469 20.1454 7.25407V7.25407ZM19.5937 10.2901L18.3005 10.2406C16.699 10.2406 16.5649 11.1099 16.5649 11.9999L16.5608 13.9551C16.5606 14.0275 16.5748 14.0993 16.6024 14.1662C16.63 14.2331 16.6706 14.2939 16.7217 14.3452C16.7729 14.3964 16.8336 14.4371 16.9005 14.4648C16.9674 14.4926 17.0391 14.5069 17.1115 14.5069H19.6298V16.4992H17.1135C16.9674 16.4992 16.8272 16.5572 16.7238 16.6605C16.6203 16.7637 16.5621 16.9038 16.5618 17.0499L16.5608 24.7853H14.4735V17.0509C14.4735 16.7467 14.2662 16.5003 13.961 16.5003H12.411V14.5079H13.961C14.0334 14.508 14.105 14.4938 14.1719 14.4662C14.2388 14.4386 14.2996 14.3981 14.3508 14.347C14.4539 14.2429 14.4725 14.1026 14.4725 13.9562V11.7338C14.4725 9.42176 14.9396 8.32038 17.393 8.32038H19.5926V10.2901H19.5937Z" fill="#182B3C"/>
</svg>
