<svg width="34" height="34" viewBox="0 0 34 34" fill="none" xmlns="http://www.w3.org/2000/svg">
<path d="M16.5 12.6393C15.7295 12.6393 14.9763 12.8678 14.3356 13.2959C13.6949 13.724 13.1956 14.3324 12.9007 15.0443C12.6059 15.7562 12.5287 16.5395 12.679 17.2952C12.8293 18.0509 13.2004 18.7451 13.7452 19.2899C14.2901 19.8348 14.9842 20.2058 15.74 20.3561C16.4957 20.5065 17.279 20.4293 17.9909 20.1344C18.7027 19.8396 19.3112 19.3402 19.7393 18.6996C20.1673 18.0589 20.3958 17.3057 20.3958 16.5352C20.3958 15.5019 19.9854 14.511 19.2548 13.7804C18.5242 13.0498 17.5332 12.6393 16.5 12.6393ZM16.5 19.7227C15.8696 19.7227 15.2533 19.5357 14.7291 19.1855C14.2049 18.8352 13.7964 18.3374 13.5551 17.755C13.3139 17.1725 13.2508 16.5316 13.3737 15.9133C13.4967 15.295 13.8003 14.727 14.2461 14.2813C14.6919 13.8355 15.2598 13.5319 15.8781 13.4089C16.4965 13.2859 17.1374 13.349 17.7198 13.5903C18.3022 13.8315 18.8001 14.2401 19.1503 14.7643C19.5006 15.2885 19.6875 15.9047 19.6875 16.5352C19.6875 17.3805 19.3517 18.1913 18.7539 18.7891C18.1561 19.3868 17.3454 19.7227 16.5 19.7227ZM20.3958 8.03516H12.6042C11.3831 8.03516 10.212 8.52024 9.34853 9.38369C8.48508 10.2471 8 11.4182 8 12.6393V20.431C8 21.0356 8.11909 21.6343 8.35047 22.1929C8.58185 22.7515 8.92099 23.2591 9.34853 23.6866C10.212 24.5501 11.3831 25.0352 12.6042 25.0352H20.3958C21.0005 25.0352 21.5992 24.9161 22.1578 24.6847C22.7164 24.4533 23.2239 24.1142 23.6515 23.6866C24.079 23.2591 24.4181 22.7515 24.6495 22.1929C24.8809 21.6343 25 21.0356 25 20.431V12.6393C25 12.0347 24.8809 11.436 24.6495 10.8774C24.4181 10.3188 24.079 9.81122 23.6515 9.38369C23.2239 8.95615 22.7164 8.61701 22.1578 8.38563C21.5992 8.15425 21.0005 8.03516 20.3958 8.03516ZM24.2917 20.431C24.2917 21.4642 23.8812 22.4551 23.1506 23.1858C22.42 23.9164 21.4291 24.3268 20.3958 24.3268H12.6042C11.5709 24.3268 10.58 23.9164 9.8494 23.1858C9.11879 22.4551 8.70833 21.4642 8.70833 20.431V12.6393C8.70833 11.6061 9.11879 10.6152 9.8494 9.88455C10.58 9.15394 11.5709 8.74349 12.6042 8.74349H20.3958C21.4291 8.74349 22.42 9.15394 23.1506 9.88455C23.8812 10.6152 24.2917 11.6061 24.2917 12.6393V20.431ZM21.8125 11.931C21.8125 12.0711 21.771 12.208 21.6931 12.3245C21.6153 12.441 21.5047 12.5318 21.3752 12.5854C21.2458 12.639 21.1034 12.653 20.966 12.6257C20.8286 12.5984 20.7024 12.5309 20.6033 12.4319C20.5042 12.3328 20.4368 12.2066 20.4094 12.0692C20.3821 11.9318 20.3961 11.7894 20.4498 11.6599C20.5034 11.5305 20.5942 11.4199 20.7106 11.342C20.8271 11.2642 20.9641 11.2227 21.1042 11.2227C21.292 11.2227 21.4722 11.2973 21.605 11.4301C21.7379 11.563 21.8125 11.7431 21.8125 11.931Z" fill="#182B3C"/>
<path d="M16.5361 0.0351562C7.41881 0.0351562 0 7.45191 0 16.5702C0 25.6885 7.41881 33.1053 16.5361 33.1053C25.6534 33.1053 33.0722 25.6885 33.0722 16.5702C33.0722 7.45191 25.6534 0.0351562 16.5361 0.0351562ZM16.5361 32.0039C8.02622 32.0039 1.10344 25.0801 1.10344 16.5702C1.10344 8.06034 8.02622 1.13653 16.5361 1.13653C25.046 1.13653 31.9688 8.06034 31.9688 16.5702C31.9688 25.0801 25.046 32.0039 16.5361 32.0039Z" fill="#182B3C"/>
</svg>
