<svg width="19" height="19" viewBox="0 0 19 19" fill="none" xmlns="http://www.w3.org/2000/svg">
<path d="M11.3999 7.59981H15.9257C17.3381 7.59981 18.2567 9.0862 17.6251 10.3495L14.3001 16.9995C13.9782 17.6432 13.3203 18.0498 12.6007 18.0498H8.78384C8.62849 18.0498 8.47373 18.0308 8.32302 17.9931L4.74994 17.0998M11.3999 7.59981V2.84981C11.3999 1.80046 10.5493 0.949806 9.49994 0.949806H9.40924C8.93466 0.949806 8.54994 1.33453 8.54994 1.80911C8.54994 2.48769 8.34908 3.1511 7.97266 3.71572L4.74994 8.54981V17.0998M11.3999 7.59981H9.49994M4.74994 17.0998H2.84994C1.8006 17.0998 0.949938 16.2491 0.949938 15.1998V9.49981C0.949938 8.45046 1.8006 7.59981 2.84994 7.59981H5.22494" stroke="#182B3C" stroke-linecap="round" stroke-linejoin="round"/>
</svg>
