<svg width="19" height="20" viewBox="0 0 19 20" fill="none" xmlns="http://www.w3.org/2000/svg">
<path d="M0 9.09998C0 8.10586 0.805888 7.29998 1.8 7.29998C2.79411 7.29998 3.6 8.10586 3.6 9.09998V16.3C3.6 17.2941 2.79411 18.1 1.8 18.1C0.805888 18.1 0 17.2941 0 16.3V9.09998Z" fill="#111827"/>
<path d="M4.7 10V16.5167C4.7 17.4258 5.2136 18.2568 6.02669 18.6633L6.0865 18.6933C6.75301 19.0265 7.48795 19.2 8.23313 19.2H14.7325C15.8765 19.2 16.8615 18.3925 17.0859 17.2707L18.5259 10.0707C18.8229 8.58558 17.687 7.2 16.1725 7.2C13.8128 7.2 11.9 5.28715 11.9 2.92753V2.4C11.9 1.07452 10.8255 0 9.5 0C8.83726 0 8.3 0.537258 8.3 1.2V2C8.3 3.03858 7.96314 4.04914 7.34 4.88L5.66 7.12C5.03685 7.95086 4.7 8.96142 4.7 10Z" fill="#111827"/>
</svg>
