<svg width="33" height="33" viewBox="0 0 33 33" fill="none" xmlns="http://www.w3.org/2000/svg">
<g clip-path="url(#clip0_1051_2170)">
<path d="M20.1248 12.3254C19.4256 12.3254 18.9079 12.5017 18.5026 12.7245C18.4376 12.4935 18.2242 12.3244 17.9725 12.3749H14.8953C14.5911 12.3244 14.3446 12.5708 14.4384 12.8905V24.2343C14.3446 24.523 14.5911 24.7705 14.8953 24.7499H17.9725C18.2767 24.7705 18.5232 24.523 18.5232 24.2188L18.5222 17.3631C18.5212 17.36 18.5098 17.032 18.7171 16.8062C18.8831 16.6268 19.1688 16.535 19.5638 16.535C20.2217 16.535 20.5146 16.8041 20.6239 17.4064V24.2188C20.5156 24.523 20.7621 24.7705 21.0663 24.7499H24.3096C24.6138 24.7705 24.8602 24.523 24.7509 24.2188V17.1774C24.8592 13.5969 22.3089 12.3254 20.1248 12.3254ZM23.7578 23.7187H21.617V17.4064C21.617 16.1885 20.8301 15.4336 19.5648 15.4336C18.8491 15.4336 18.2922 15.644 17.9086 16.0585C17.3754 16.636 17.4167 17.3682 17.5312 17.5312V23.7187H15.446V13.4268H17.4218V13.7733C17.421 13.8765 17.4494 13.9779 17.5036 14.0657C17.5578 14.1535 17.6357 14.2243 17.7283 14.2699C17.8209 14.3154 17.9245 14.3339 18.0272 14.3233C18.1299 14.3126 18.2275 14.2731 18.3087 14.2095L18.4531 14.0981C18.8707 13.7692 19.3028 13.4278 20.1258 13.4278C20.9776 13.4278 23.7589 13.699 23.7589 17.1785V23.7187H23.7578ZM11.3437 7.18359C10.1866 7.18359 9.24609 8.12409 9.24609 9.28116C9.24609 10.4382 10.1866 11.3787 11.3437 11.3787C12.5007 11.3787 13.4412 10.4382 13.4412 9.28116C13.4412 8.12409 12.5007 7.18359 11.3437 7.18359ZM11.3437 10.2773C10.795 10.2773 10.3475 9.82978 10.3475 9.28116C10.3475 8.73253 10.795 8.28497 11.3437 8.28497C11.8923 8.28497 12.3398 8.73253 12.3398 9.28116C12.3398 9.82978 11.8923 10.2773 11.3437 10.2773ZM12.8163 12.3244H9.75553C9.45131 12.3244 9.20484 12.5708 9.28116 12.8905V24.2343C9.20484 24.523 9.45131 24.7705 9.75553 24.7499H12.8163C13.1205 24.7705 13.367 24.523 13.367 24.2188V12.8751C13.367 12.729 13.309 12.5889 13.2057 12.4857C13.1024 12.3824 12.9623 12.3244 12.8163 12.3244ZM12.3749 23.7187H10.3062V13.4268H12.3749V23.7187Z" fill="#182B3C"/>
<path d="M16.4999 -0.0351562C7.38159 -0.0351562 -0.0351562 7.38159 -0.0351562 16.4999C-0.0351562 25.6182 7.38159 33.035 16.4999 33.035C25.6182 33.035 33.035 25.6182 33.035 16.4999C33.035 7.38159 25.6182 -0.0351562 16.4999 -0.0351562ZM16.4999 31.9336C7.99003 31.9336 1.06622 25.0098 1.06622 16.4999C1.06622 7.99003 7.99003 1.06622 16.4999 1.06622C25.0098 1.06622 31.9336 7.99003 31.9336 16.4999C31.9336 25.0098 25.0098 31.9336 16.4999 31.9336Z" fill="#182B3C"/>
</g>
<defs>
<clipPath id="clip0_1051_2170">
<rect width="33" height="33" fill="white"/>
</clipPath>
</defs>
</svg>
