<svg width="17" height="12" viewBox="0 0 17 12" fill="none" xmlns="http://www.w3.org/2000/svg">
<path d="M14.5215 2.4452L8.5 6.77703L2.47849 2.4452M1.76805 1.01126C1.56435 1.01126 1.36899 1.09036 1.22496 1.23115C1.08092 1.37194 1 1.5629 1 1.76201V10.2492C1 10.4484 1.08092 10.6393 1.22496 10.7801C1.36899 10.9209 1.56435 11 1.76805 11H15.232C15.4356 11 15.631 10.9209 15.775 10.7801C15.9191 10.6393 16 10.4484 16 10.2492V1.75075C16 1.55164 15.9191 1.36068 15.775 1.21989C15.631 1.0791 15.4356 1 15.232 1H1.76805V1.01126Z" stroke="#182B3C" stroke-linecap="round" stroke-linejoin="round"/>
</svg>
