<svg width="10" height="8" viewBox="0 0 10 8" fill="none" xmlns="http://www.w3.org/2000/svg">
<path d="M5.92988 7.99999C5.83549 8.00044 5.74197 7.98204 5.6548 7.94587C5.56762 7.9097 5.48855 7.85649 5.42223 7.78937C5.2877 7.65474 5.21214 7.47224 5.21214 7.28196C5.21214 7.09168 5.2877 6.90918 5.42223 6.77455L8.2957 3.90241L5.42223 1.03027C5.35504 0.891185 5.3345 0.734155 5.36367 0.582484C5.39284 0.430813 5.47017 0.292585 5.58416 0.188318C5.69815 0.0840513 5.84275 0.0193028 5.99647 0.00368246C6.1502 -0.0119378 6.30487 0.022403 6.43752 0.101608L9.78991 3.45244C9.92444 3.58707 10 3.76957 10 3.95985C10 4.15013 9.92444 4.33263 9.78991 4.46726L6.43752 7.76065C6.37367 7.83299 6.29571 7.89153 6.20841 7.93269C6.12112 7.97384 6.02634 7.99675 5.92988 7.99999ZM0.66184 7.99999C0.477035 7.98587 0.305117 7.89995 0.182928 7.76065C0.0651264 7.629 0 7.45858 0 7.28196C0 7.10534 0.0651264 6.93491 0.182928 6.80327L3.0564 3.93113L0.182928 1.05899C0.118906 0.924999 0.0980176 0.774467 0.123138 0.62812C0.148259 0.481772 0.218154 0.346808 0.323198 0.241813C0.428242 0.136817 0.563269 0.0669554 0.709684 0.0418461C0.856099 0.0167369 1.0067 0.0376159 1.14075 0.101608L4.49314 3.45244C4.62767 3.58707 4.70323 3.76957 4.70323 3.95985C4.70323 4.15013 4.62767 4.33263 4.49314 4.46726L1.14075 7.76065C1.01856 7.89995 0.846646 7.98587 0.66184 7.99999Z" fill="#182B3C"/>
</svg>
