<svg width="18" height="17" viewBox="0 0 18 17" fill="none" xmlns="http://www.w3.org/2000/svg">
<g clip-path="url(#clip0_397_14902)">
<path d="M7.12533 15.5837C7.51653 15.5837 7.83366 15.2665 7.83366 14.8753C7.83366 14.4841 7.51653 14.167 7.12533 14.167C6.73412 14.167 6.41699 14.4841 6.41699 14.8753C6.41699 15.2665 6.73412 15.5837 7.12533 15.5837Z" fill="#3BAF3D" stroke="#3BAF3D" stroke-linecap="round" stroke-linejoin="round"/>
<path d="M14.9163 15.5837C15.3075 15.5837 15.6247 15.2665 15.6247 14.8753C15.6247 14.4841 15.3075 14.167 14.9163 14.167C14.5251 14.167 14.208 14.4841 14.208 14.8753C14.208 15.2665 14.5251 15.5837 14.9163 15.5837Z" fill="#3BAF3D" stroke="#3BAF3D" stroke-linecap="round" stroke-linejoin="round"/>
<path d="M1.45801 0.708008H4.29134L6.18967 10.1926C6.25445 10.5187 6.43186 10.8116 6.69085 11.0201C6.94985 11.2286 7.27392 11.3394 7.60634 11.333H14.4913C14.8238 11.3394 15.1478 11.2286 15.4068 11.0201C15.6658 10.8116 15.8432 10.5187 15.908 10.1926L17.0413 4.24967H4.99967" stroke="#3BAF3D" stroke-linecap="round" stroke-linejoin="round"/>
</g>
<defs>
<clipPath id="clip0_397_14902">
<rect width="17" height="17" fill="white" transform="translate(0.75)"/>
</clipPath>
</defs>
</svg>
