<svg width="13" height="13" viewBox="0 0 13 13" fill="none" xmlns="http://www.w3.org/2000/svg">
<path d="M12.7513 2.81195L7.95009 0.0619441C7.8792 0.0213273 7.79959 2.9564e-05 7.71868 2.9564e-05C7.63776 2.9564e-05 7.55815 0.0213273 7.48726 0.0619441L2.68605 2.81195C2.61078 2.85511 2.548 2.91852 2.50428 2.99557C2.46056 3.07261 2.4375 3.16046 2.4375 3.24995C2.4375 3.33944 2.46056 3.42729 2.50428 3.50434C2.548 3.58138 2.61078 3.64479 2.68605 3.68795L7.47876 6.50004L7.48726 12.25L6.51852 11.75L6.0384 11.5L5.55828 11.25L5.31807 11.6955L7.48726 12.938C7.55813 12.9787 7.63774 13 7.71868 13C7.79961 13 7.87922 12.9787 7.95009 12.938L12.7513 10.188C12.8266 10.1448 12.8894 10.0814 12.9332 10.0044C12.9769 9.92733 13 9.83947 13 9.74997V3.24995C13 3.16044 12.9769 3.07258 12.9332 2.99554C12.8894 2.9185 12.8266 2.85509 12.7513 2.81195ZM7.71859 0.499939L12.5199 3.25004L7.71868 6.00004L2.91762 3.25001L7.71859 0.499939ZM12.52 9.75005L7.95888 12.25V6.50004L12.52 3.75004V9.75005Z" fill="#00A6EF"/>
<path d="M4.33333 6.04861H2.16667H0V5.6875H4.33333V6.04861ZM5.41667 8.9375H3.25H1.08333V8.57639H5.41667V8.9375ZM6.5 7.49306H4.33333H2.16667V7.13194H6.5V7.49306Z" fill="#00A6EF"/>
</svg>
