<svg width="13" height="12" viewBox="0 0 13 12" fill="none" xmlns="http://www.w3.org/2000/svg">
<path d="M9.88 4.28571V6.57143C9.88 6.6472 9.85261 6.71988 9.80385 6.77346C9.75509 6.82704 9.68896 6.85714 9.62 6.85714H4.0105L5.122 8.08571C5.14637 8.11168 5.16575 8.14277 5.17899 8.17712C5.19222 8.21148 5.19904 8.24841 5.19904 8.28571C5.19904 8.32302 5.19222 8.35995 5.17899 8.39431C5.16575 8.42866 5.14637 8.45975 5.122 8.48571C5.09837 8.5125 5.07008 8.53379 5.03882 8.54834C5.00755 8.56288 4.97395 8.57037 4.94 8.57037C4.90605 8.57037 4.87245 8.56288 4.84118 8.54834C4.80992 8.53379 4.78163 8.5125 4.758 8.48571L3.198 6.77143C3.17363 6.74546 3.15425 6.71437 3.14101 6.68002C3.12778 6.64566 3.12096 6.60874 3.12096 6.57143C3.12096 6.53412 3.12778 6.49719 3.14101 6.46284C3.15425 6.42848 3.17363 6.3974 3.198 6.37143L4.758 4.65714C4.80807 4.61588 4.87 4.59584 4.93243 4.60072C4.99486 4.60559 5.05359 4.63505 5.09785 4.68368C5.1421 4.73232 5.16891 4.79686 5.17335 4.86546C5.17778 4.93406 5.15955 5.00212 5.122 5.05714L4.0105 6.28571H9.36V4.28571C9.36 4.20994 9.38739 4.13727 9.43615 4.08368C9.48491 4.0301 9.55104 4 9.62 4C9.68896 4 9.75509 4.0301 9.80385 4.08368C9.85261 4.13727 9.88 4.20994 9.88 4.28571ZM13 0.857143V11.1429C13 11.3702 12.9178 11.5882 12.7715 11.7489C12.6253 11.9097 12.4269 12 12.22 12H0.78C0.573131 12 0.374735 11.9097 0.228457 11.7489C0.0821784 11.5882 0 11.3702 0 11.1429V0.857143C0 0.629814 0.0821784 0.411797 0.228457 0.251051C0.374735 0.0903058 0.573131 0 0.78 0H12.22C12.4269 0 12.6253 0.0903058 12.7715 0.251051C12.9178 0.411797 13 0.629814 13 0.857143ZM12.48 0.857143C12.48 0.781367 12.4526 0.708694 12.4038 0.655112C12.3551 0.601531 12.289 0.571429 12.22 0.571429H0.78C0.711044 0.571429 0.644912 0.601531 0.596152 0.655112C0.547393 0.708694 0.52 0.781367 0.52 0.857143V11.1429C0.52 11.2186 0.547393 11.2913 0.596152 11.3449C0.644912 11.3985 0.711044 11.4286 0.78 11.4286H12.22C12.289 11.4286 12.3551 11.3985 12.4038 11.3449C12.4526 11.2913 12.48 11.2186 12.48 11.1429V0.857143Z" fill="#00A6EF"/>
</svg>
