<svg width="17" height="20" viewBox="0 0 17 20" fill="none" xmlns="http://www.w3.org/2000/svg">
<g clip-path="url(#clip0_1333_23212)">
<path d="M13.6943 5.25003H12.7498V3.13892H4.24984V5.25003H3.30539C2.80443 5.25003 2.32398 5.47245 1.96975 5.86836C1.61551 6.26427 1.4165 6.80124 1.4165 7.36114V13.1667H3.26762V12.1586H2.36095V7.36114C2.36095 7.08119 2.46045 6.8127 2.63757 6.61475C2.81469 6.41679 3.05491 6.30558 3.30539 6.30558H13.6943C13.9448 6.30558 14.185 6.41679 14.3621 6.61475C14.5392 6.8127 14.6387 7.08119 14.6387 7.36114V12.1111H13.7321V13.1667H15.5832V7.36114C15.5832 6.80124 15.3842 6.26427 15.0299 5.86836C14.6757 5.47245 14.1952 5.25003 13.6943 5.25003ZM11.8054 5.25003H5.19428V4.19447H11.8054V5.25003Z" fill="#3BAF3D"/>
<path d="M13.2223 10H3.77789C3.65265 10 3.53253 10.0556 3.44397 10.1546C3.35542 10.2536 3.30566 10.3878 3.30566 10.5278C3.30566 10.6678 3.35542 10.802 3.44397 10.901C3.53253 11 3.65265 11.0556 3.77789 11.0556H4.25011V17.3889H12.7501V11.0556H13.2223C13.3476 11.0556 13.4677 11 13.5562 10.901C13.6448 10.802 13.6946 10.6678 13.6946 10.5278C13.6946 10.3878 13.6448 10.2536 13.5562 10.1546C13.4677 10.0556 13.3476 10 13.2223 10ZM11.8057 16.3333H5.19455V11.0556H11.8057V16.3333Z" fill="#3BAF3D"/>
<path d="M12.75 7.3822H13.6944V8.43776H12.75V7.3822Z" fill="#3BAF3D"/>
</g>
<defs>
<clipPath id="clip0_1333_23212">
<rect width="17" height="19" fill="white" transform="translate(0 0.5)"/>
</clipPath>
</defs>
</svg>
