<svg width="17" height="19" viewBox="0 0 17 19" fill="none" xmlns="http://www.w3.org/2000/svg">
<g clip-path="url(#clip0_393_18619)">
<path d="M13.6957 4.74978H12.7513V2.63867H4.2513V4.74978H3.30686C2.80589 4.74978 2.32545 4.9722 1.97121 5.36811C1.61698 5.76402 1.41797 6.30099 1.41797 6.86089V12.6664H3.26908V11.6584H2.36241V6.86089C2.36241 6.58094 2.46192 6.31246 2.63903 6.1145C2.81615 5.91655 3.05638 5.80534 3.30686 5.80534H13.6957C13.9462 5.80534 14.1865 5.91655 14.3636 6.1145C14.5407 6.31246 14.6402 6.58094 14.6402 6.86089V11.6109H13.7335V12.6664H15.5846V6.86089C15.5846 6.30099 15.3856 5.76402 15.0314 5.36811C14.6772 4.9722 14.1967 4.74978 13.6957 4.74978ZM11.8069 4.74978H5.19575V3.69423H11.8069V4.74978Z" fill="#2E2E2E"/>
<path d="M13.2214 9.5H3.77691C3.65167 9.5 3.53156 9.5556 3.443 9.65458C3.35444 9.75356 3.30469 9.8878 3.30469 10.0278C3.30469 10.1678 3.35444 10.302 3.443 10.401C3.53156 10.5 3.65167 10.5556 3.77691 10.5556H4.24913V16.8889H12.7491V10.5556H13.2214C13.3466 10.5556 13.4667 10.5 13.5553 10.401C13.6438 10.302 13.6936 10.1678 13.6936 10.0278C13.6936 9.8878 13.6438 9.75356 13.5553 9.65458C13.4667 9.5556 13.3466 9.5 13.2214 9.5ZM11.8047 15.8333H5.19358V10.5556H11.8047V15.8333Z" fill="#2E2E2E"/>
<path d="M12.75 6.88184H13.6944V7.93739H12.75V6.88184Z" fill="#2E2E2E"/>
</g>
<defs>
<clipPath id="clip0_393_18619">
<rect width="17" height="19" fill="white"/>
</clipPath>
</defs>
</svg>
